<svg width="100" height="100" viewBox="0 0 100 100" fill="none" xmlns="http://www.w3.org/2000/svg">
<rect width="100" height="100" fill="white"/>
<g clip-path="url(#clip0_4_2)">
<path d="M26.96 46.21C25.82 46.86 24.48 47.2 22.62 47.2C17.9 47.2 15.5 44.48 15.5 39.98C15.5 35.22 17.88 32.5 22.62 32.5C24.88 32.5 25.76 32.92 27 33.51L26.3 35.81C25.12 35.21 24 34.88 22.68 34.88C19.94 34.88 18.56 36.88 18.56 39.98C18.56 43.08 20.28 44.82 22.62 44.82C23.74 44.82 25.2 44.5 26.3 43.91L26.96 46.21Z" fill="black" stroke="black" stroke-miterlimit="10"/>
<path d="M35.1198 47.18C30.2798 47.18 28.8198 44.7 28.8198 39.72C28.8198 35.18 30.1398 32.5 35.1398 32.5C40.1398 32.5 41.4598 35.08 41.4598 39.98C41.4598 44.88 39.8598 47.18 35.1198 47.18ZM38.3398 39.98C38.3398 36.11 37.3798 34.88 35.1398 34.88C33.0398 34.88 31.9398 36.05 31.9398 39.72C31.9398 43.39 32.8998 44.8 35.1398 44.8C37.2198 44.8 38.3398 43.61 38.3398 39.98Z" fill="black" stroke="black" stroke-miterlimit="10"/>
<path d="M49.0198 44.1903C49.9998 41.7903 51.7398 36.3303 51.7398 32.7803H54.6998C54.6998 37.1303 52.3798 43.6903 50.6598 46.9103H47.3798C45.6598 43.7003 43.3398 37.3303 43.3398 32.7803H46.2798C46.2798 36.5303 48.0198 41.7903 49.0198 44.1903Z" fill="black" stroke="black" stroke-miterlimit="10"/>
<path d="M67.6001 35.0598H62.0001C61.2401 35.0598 61.0401 35.3598 61.0401 35.9698V38.6698H67.4401V40.9498H61.0401V43.7298C61.0401 44.3498 61.2401 44.6398 62.0001 44.6398H67.7401V46.8998H61.0001C58.9601 46.8998 58.0801 46.2098 58.0801 44.1598V35.5398C58.0801 33.4998 58.9601 32.7998 61.0001 32.7998H67.6001V35.0598Z" fill="black" stroke="black" stroke-miterlimit="10"/>
<path d="M81.9202 37.0798C81.9202 39.4198 81.1002 40.6498 79.2402 41.1498C79.7402 41.6098 80.1402 42.2798 80.5602 43.1498L82.3602 46.8998H79.3402L78.0602 44.0798C77.5002 42.8498 76.8402 41.6198 75.6602 41.3798H74.1802V46.8998H71.2202V35.5398C71.2202 33.4998 72.1002 32.7998 74.1402 32.7998H76.8402C80.7802 32.7998 81.9202 34.2698 81.9202 37.0898V37.0798ZM75.1402 35.0598C74.3802 35.0598 74.1802 35.3598 74.1802 35.9698V39.1198H76.5402C78.2602 39.1198 78.9002 38.5998 78.9002 37.0798C78.9002 35.5598 78.2602 35.0598 76.5802 35.0598H75.1402Z" fill="black" stroke="black" stroke-miterlimit="10"/>
<path d="M18.5098 52.6396L22.7698 61.8496L27.0098 52.6396H29.9498V66.7496H27.0298V58.5196L23.7298 65.4796H21.7698L18.4698 58.5396V66.7496H15.5498V52.6396H18.5098Z" fill="black" stroke="black" stroke-miterlimit="10"/>
<path d="M44.9401 66.7399H41.9801L40.9801 63.7399H35.5601L34.5401 66.7399H31.5601L36.6001 52.6299H40.0401L44.9401 66.7399ZM40.3201 61.6999L38.2401 55.1899L36.1801 61.6999H40.3201Z" fill="black" stroke="black" stroke-miterlimit="10"/>
<path d="M49.5098 62.1199V66.7399H46.5298V52.6299H49.5098V58.2099L54.3298 52.6299H57.7298L52.5498 58.6199C53.9498 58.9199 54.7298 59.8699 55.3898 61.1399L58.0698 66.7399H55.0498L53.1698 62.6699C52.5698 61.5799 52.3498 60.8199 50.8698 60.5499L49.5098 62.1199Z" fill="black" stroke="black" stroke-miterlimit="10"/>
<path d="M69.5898 54.8999H63.9898C63.2298 54.8999 63.0298 55.1999 63.0298 55.8099V58.5099H69.4298V60.7899H63.0298V63.5699C63.0298 64.1899 63.2298 64.4799 63.9898 64.4799H69.7298V66.7399H62.9898C60.9498 66.7399 60.0698 66.0499 60.0698 63.9999V55.3699C60.0698 53.3299 60.9498 52.6299 62.9898 52.6299H69.5898V54.8899V54.8999Z" fill="black" stroke="black" stroke-miterlimit="10"/>
<path d="M83.2298 56.9199C83.2298 59.2599 82.4098 60.4899 80.5498 60.9899C81.0498 61.4499 81.4498 62.1199 81.8698 62.9899L83.6698 66.7399H80.6498L79.3698 63.9199C78.8098 62.6899 78.1498 61.4599 76.9698 61.2199H75.4898V66.7399H72.5298V55.3699C72.5298 53.3299 73.4098 52.6299 75.4498 52.6299H78.1498C82.0898 52.6299 83.2298 54.0999 83.2298 56.9199ZM76.4498 54.8999C75.6898 54.8999 75.4898 55.1999 75.4898 55.8099V58.9599H77.8498C79.5698 58.9599 80.2098 58.4399 80.2098 56.9199C80.2098 55.3999 79.5698 54.8999 77.8898 54.8999H76.4498Z" fill="black" stroke="black" stroke-miterlimit="10"/>
</g>
<defs>
<clipPath id="clip0_4_2">
<rect width="69.47" height="35.24" fill="white" transform="translate(15 32)"/>
</clipPath>
</defs>
</svg>
